<mxfile host="app.diagrams.net" modified="2020-11-05T12:11:09.529Z" agent="5.0 (Windows NT 6.3; Win64; x64) AppleWebKit/537.36 (KHTML, like Gecko) Chrome/86.0.4240.183 Safari/537.36" etag="bKG8RuR982S-C51x6VDc" version="13.9.1" type="github">
  <diagram id="C5RBs43oDa-KdzZeNtuy" name="Page-1">
    <mxGraphModel dx="4540" dy="718" grid="1" gridSize="10" guides="1" tooltips="1" connect="1" arrows="1" fold="1" page="1" pageScale="1" pageWidth="3300" pageHeight="4681" math="0" shadow="0">
      <root>
        <mxCell id="WIyWlLk6GJQsqaUBKTNV-0" />
        <mxCell id="WIyWlLk6GJQsqaUBKTNV-1" parent="WIyWlLk6GJQsqaUBKTNV-0" />
        <mxCell id="wJtr19coKHJFjeqQPlpN-0" value="" style="rounded=0;whiteSpace=wrap;html=1;" vertex="1" parent="WIyWlLk6GJQsqaUBKTNV-1">
          <mxGeometry x="-2480" y="320" width="160" height="40" as="geometry" />
        </mxCell>
        <mxCell id="wJtr19coKHJFjeqQPlpN-2" value="PILOT" style="text;html=1;strokeColor=none;fillColor=none;align=center;verticalAlign=middle;whiteSpace=wrap;rounded=0;fontStyle=5;fontSize=25;" vertex="1" parent="WIyWlLk6GJQsqaUBKTNV-1">
          <mxGeometry x="-2460" y="290" width="40" height="20" as="geometry" />
        </mxCell>
        <mxCell id="wJtr19coKHJFjeqQPlpN-3" value="" style="rounded=0;whiteSpace=wrap;html=1;" vertex="1" parent="WIyWlLk6GJQsqaUBKTNV-1">
          <mxGeometry x="-2160" y="320" width="200" height="40" as="geometry" />
        </mxCell>
        <mxCell id="wJtr19coKHJFjeqQPlpN-4" value="" style="rounded=0;whiteSpace=wrap;html=1;" vertex="1" parent="WIyWlLk6GJQsqaUBKTNV-1">
          <mxGeometry x="-2320" y="320" width="160" height="40" as="geometry" />
        </mxCell>
        <mxCell id="wJtr19coKHJFjeqQPlpN-5" value="" style="rounded=0;whiteSpace=wrap;html=1;" vertex="1" parent="WIyWlLk6GJQsqaUBKTNV-1">
          <mxGeometry x="-1961" y="320" width="160" height="40" as="geometry" />
        </mxCell>
        <mxCell id="wJtr19coKHJFjeqQPlpN-6" value="" style="rounded=0;whiteSpace=wrap;html=1;" vertex="1" parent="WIyWlLk6GJQsqaUBKTNV-1">
          <mxGeometry x="-1801" y="320" width="160" height="40" as="geometry" />
        </mxCell>
        <mxCell id="wJtr19coKHJFjeqQPlpN-8" value="Lic_No." style="text;strokeColor=none;fillColor=none;align=center;verticalAlign=middle;rounded=0;fontSize=25;fontStyle=4;labelPosition=center;verticalLabelPosition=middle;labelBackgroundColor=none;labelBorderColor=none;whiteSpace=wrap;html=1;" vertex="1" parent="WIyWlLk6GJQsqaUBKTNV-1">
          <mxGeometry x="-2259" y="330" width="40" height="20" as="geometry" />
        </mxCell>
        <mxCell id="wJtr19coKHJFjeqQPlpN-9" value="Airborne time" style="text;html=1;strokeColor=none;fillColor=none;align=center;verticalAlign=middle;whiteSpace=wrap;rounded=0;fontSize=25;" vertex="1" parent="WIyWlLk6GJQsqaUBKTNV-1">
          <mxGeometry x="-2149.5" y="330" width="179" height="20" as="geometry" />
        </mxCell>
        <mxCell id="wJtr19coKHJFjeqQPlpN-10" value="Salary" style="text;html=1;strokeColor=none;fillColor=none;align=center;verticalAlign=middle;whiteSpace=wrap;rounded=0;fontSize=25;" vertex="1" parent="WIyWlLk6GJQsqaUBKTNV-1">
          <mxGeometry x="-1901" y="330" width="40" height="20" as="geometry" />
        </mxCell>
        <mxCell id="wJtr19coKHJFjeqQPlpN-11" value="Address" style="text;html=1;strokeColor=none;fillColor=none;align=center;verticalAlign=middle;whiteSpace=wrap;rounded=0;fontSize=25;" vertex="1" parent="WIyWlLk6GJQsqaUBKTNV-1">
          <mxGeometry x="-1741" y="330" width="40" height="20" as="geometry" />
        </mxCell>
        <mxCell id="wJtr19coKHJFjeqQPlpN-12" value="Name" style="text;html=1;strokeColor=none;fillColor=none;align=center;verticalAlign=middle;whiteSpace=wrap;rounded=0;fontSize=25;" vertex="1" parent="WIyWlLk6GJQsqaUBKTNV-1">
          <mxGeometry x="-2420" y="330" width="40" height="20" as="geometry" />
        </mxCell>
        <mxCell id="wJtr19coKHJFjeqQPlpN-14" value="" style="rounded=0;whiteSpace=wrap;html=1;" vertex="1" parent="WIyWlLk6GJQsqaUBKTNV-1">
          <mxGeometry x="-2480" y="440" width="160" height="40" as="geometry" />
        </mxCell>
        <mxCell id="wJtr19coKHJFjeqQPlpN-15" value="" style="rounded=0;whiteSpace=wrap;html=1;" vertex="1" parent="WIyWlLk6GJQsqaUBKTNV-1">
          <mxGeometry x="-2160" y="440" width="200" height="40" as="geometry" />
        </mxCell>
        <mxCell id="wJtr19coKHJFjeqQPlpN-16" value="" style="rounded=0;whiteSpace=wrap;html=1;" vertex="1" parent="WIyWlLk6GJQsqaUBKTNV-1">
          <mxGeometry x="-2320" y="440" width="160" height="40" as="geometry" />
        </mxCell>
        <mxCell id="wJtr19coKHJFjeqQPlpN-19" value="Capacity" style="text;strokeColor=none;fillColor=none;align=center;verticalAlign=middle;rounded=0;fontSize=25;fontStyle=0;labelPosition=center;verticalLabelPosition=middle;labelBackgroundColor=none;labelBorderColor=none;whiteSpace=wrap;html=1;" vertex="1" parent="WIyWlLk6GJQsqaUBKTNV-1">
          <mxGeometry x="-2260" y="450" width="40" height="20" as="geometry" />
        </mxCell>
        <mxCell id="wJtr19coKHJFjeqQPlpN-20" value="Weight" style="text;html=1;strokeColor=none;fillColor=none;align=center;verticalAlign=middle;whiteSpace=wrap;rounded=0;fontSize=25;" vertex="1" parent="WIyWlLk6GJQsqaUBKTNV-1">
          <mxGeometry x="-2149.5" y="450" width="179" height="20" as="geometry" />
        </mxCell>
        <mxCell id="wJtr19coKHJFjeqQPlpN-23" value="Model" style="text;html=1;strokeColor=none;fillColor=none;align=center;verticalAlign=middle;whiteSpace=wrap;rounded=0;fontSize=25;fontStyle=4" vertex="1" parent="WIyWlLk6GJQsqaUBKTNV-1">
          <mxGeometry x="-2420" y="450" width="40" height="20" as="geometry" />
        </mxCell>
        <mxCell id="wJtr19coKHJFjeqQPlpN-24" value="PLANE TYPE" style="text;html=1;strokeColor=none;fillColor=none;align=left;verticalAlign=middle;whiteSpace=wrap;rounded=0;labelBackgroundColor=none;fontSize=25;fontStyle=5" vertex="1" parent="WIyWlLk6GJQsqaUBKTNV-1">
          <mxGeometry x="-2480" y="410" width="180" height="20" as="geometry" />
        </mxCell>
        <mxCell id="wJtr19coKHJFjeqQPlpN-124" style="edgeStyle=orthogonalEdgeStyle;rounded=0;orthogonalLoop=1;jettySize=auto;html=1;exitX=0.5;exitY=1;exitDx=0;exitDy=0;fontSize=25;entryX=0.5;entryY=1;entryDx=0;entryDy=0;" edge="1" parent="WIyWlLk6GJQsqaUBKTNV-1" source="wJtr19coKHJFjeqQPlpN-26" target="wJtr19coKHJFjeqQPlpN-4">
          <mxGeometry relative="1" as="geometry">
            <mxPoint x="-2230" y="390" as="targetPoint" />
            <Array as="points">
              <mxPoint x="-2399" y="618" />
              <mxPoint x="-2510" y="618" />
              <mxPoint x="-2510" y="400" />
              <mxPoint x="-2240" y="400" />
            </Array>
          </mxGeometry>
        </mxCell>
        <mxCell id="wJtr19coKHJFjeqQPlpN-26" value="" style="rounded=0;whiteSpace=wrap;html=1;" vertex="1" parent="WIyWlLk6GJQsqaUBKTNV-1">
          <mxGeometry x="-2479" y="558" width="160" height="40" as="geometry" />
        </mxCell>
        <mxCell id="wJtr19coKHJFjeqQPlpN-130" style="edgeStyle=orthogonalEdgeStyle;rounded=0;orthogonalLoop=1;jettySize=auto;html=1;exitX=0.5;exitY=1;exitDx=0;exitDy=0;fontSize=25;elbow=vertical;entryX=0.5;entryY=1;entryDx=0;entryDy=0;" edge="1" parent="WIyWlLk6GJQsqaUBKTNV-1" source="wJtr19coKHJFjeqQPlpN-28" target="wJtr19coKHJFjeqQPlpN-14">
          <mxGeometry relative="1" as="geometry">
            <mxPoint x="-2130" y="500" as="targetPoint" />
            <Array as="points">
              <mxPoint x="-2239" y="620" />
              <mxPoint x="-2120" y="620" />
              <mxPoint x="-2120" y="530" />
              <mxPoint x="-2400" y="530" />
            </Array>
          </mxGeometry>
        </mxCell>
        <mxCell id="wJtr19coKHJFjeqQPlpN-28" value="" style="rounded=0;whiteSpace=wrap;html=1;" vertex="1" parent="WIyWlLk6GJQsqaUBKTNV-1">
          <mxGeometry x="-2319" y="558" width="160" height="40" as="geometry" />
        </mxCell>
        <mxCell id="wJtr19coKHJFjeqQPlpN-31" value="Model" style="text;strokeColor=none;fillColor=none;align=center;verticalAlign=middle;rounded=0;fontSize=25;fontStyle=0;labelPosition=center;verticalLabelPosition=middle;labelBackgroundColor=none;labelBorderColor=none;whiteSpace=wrap;html=1;" vertex="1" parent="WIyWlLk6GJQsqaUBKTNV-1">
          <mxGeometry x="-2259" y="568" width="40" height="20" as="geometry" />
        </mxCell>
        <mxCell id="wJtr19coKHJFjeqQPlpN-35" value="Lic_No." style="text;html=1;strokeColor=none;fillColor=none;align=center;verticalAlign=middle;whiteSpace=wrap;rounded=0;fontSize=25;fontStyle=0" vertex="1" parent="WIyWlLk6GJQsqaUBKTNV-1">
          <mxGeometry x="-2419" y="568" width="40" height="20" as="geometry" />
        </mxCell>
        <mxCell id="wJtr19coKHJFjeqQPlpN-36" value="FLIES" style="text;html=1;strokeColor=none;fillColor=none;align=center;verticalAlign=middle;whiteSpace=wrap;rounded=0;labelBackgroundColor=none;fontSize=25;fontStyle=5" vertex="1" parent="WIyWlLk6GJQsqaUBKTNV-1">
          <mxGeometry x="-2460" y="530" width="40" height="20" as="geometry" />
        </mxCell>
        <mxCell id="wJtr19coKHJFjeqQPlpN-38" value="" style="rounded=0;whiteSpace=wrap;html=1;" vertex="1" parent="WIyWlLk6GJQsqaUBKTNV-1">
          <mxGeometry x="-2160" y="679" width="180" height="40" as="geometry" />
        </mxCell>
        <mxCell id="wJtr19coKHJFjeqQPlpN-39" value="" style="rounded=0;whiteSpace=wrap;html=1;" vertex="1" parent="WIyWlLk6GJQsqaUBKTNV-1">
          <mxGeometry x="-2320" y="679" width="160" height="40" as="geometry" />
        </mxCell>
        <mxCell id="wJtr19coKHJFjeqQPlpN-40" value="" style="rounded=0;whiteSpace=wrap;html=1;" vertex="1" parent="WIyWlLk6GJQsqaUBKTNV-1">
          <mxGeometry x="-1980" y="679" width="160" height="40" as="geometry" />
        </mxCell>
        <mxCell id="wJtr19coKHJFjeqQPlpN-41" value="" style="rounded=0;whiteSpace=wrap;html=1;" vertex="1" parent="WIyWlLk6GJQsqaUBKTNV-1">
          <mxGeometry x="-1820" y="679" width="160" height="40" as="geometry" />
        </mxCell>
        <mxCell id="wJtr19coKHJFjeqQPlpN-42" value="ID_No." style="text;strokeColor=none;fillColor=none;align=center;verticalAlign=middle;rounded=0;fontSize=25;fontStyle=4;labelPosition=center;verticalLabelPosition=middle;labelBackgroundColor=none;labelBorderColor=none;whiteSpace=wrap;html=1;" vertex="1" parent="WIyWlLk6GJQsqaUBKTNV-1">
          <mxGeometry x="-2260" y="689" width="40" height="20" as="geometry" />
        </mxCell>
        <mxCell id="wJtr19coKHJFjeqQPlpN-43" value="Salary" style="text;html=1;strokeColor=none;fillColor=none;align=center;verticalAlign=middle;whiteSpace=wrap;rounded=0;fontSize=25;" vertex="1" parent="WIyWlLk6GJQsqaUBKTNV-1">
          <mxGeometry x="-2159.5" y="689" width="179" height="20" as="geometry" />
        </mxCell>
        <mxCell id="wJtr19coKHJFjeqQPlpN-44" value="Shift" style="text;html=1;strokeColor=none;fillColor=none;align=center;verticalAlign=middle;whiteSpace=wrap;rounded=0;fontSize=25;" vertex="1" parent="WIyWlLk6GJQsqaUBKTNV-1">
          <mxGeometry x="-1920" y="689" width="40" height="20" as="geometry" />
        </mxCell>
        <mxCell id="wJtr19coKHJFjeqQPlpN-45" value="Address" style="text;html=1;strokeColor=none;fillColor=none;align=center;verticalAlign=middle;whiteSpace=wrap;rounded=0;fontSize=25;" vertex="1" parent="WIyWlLk6GJQsqaUBKTNV-1">
          <mxGeometry x="-1760" y="689" width="40" height="20" as="geometry" />
        </mxCell>
        <mxCell id="wJtr19coKHJFjeqQPlpN-47" value="EMPLOYEE" style="text;html=1;strokeColor=none;fillColor=none;align=left;verticalAlign=middle;whiteSpace=wrap;rounded=0;labelBackgroundColor=none;fontSize=25;fontStyle=5" vertex="1" parent="WIyWlLk6GJQsqaUBKTNV-1">
          <mxGeometry x="-2480" y="649" width="180" height="20" as="geometry" />
        </mxCell>
        <mxCell id="wJtr19coKHJFjeqQPlpN-48" value="" style="rounded=0;whiteSpace=wrap;html=1;" vertex="1" parent="WIyWlLk6GJQsqaUBKTNV-1">
          <mxGeometry x="-2480" y="679" width="160" height="40" as="geometry" />
        </mxCell>
        <mxCell id="wJtr19coKHJFjeqQPlpN-49" value="Name" style="text;strokeColor=none;fillColor=none;align=center;verticalAlign=middle;rounded=0;fontSize=25;fontStyle=0;labelPosition=center;verticalLabelPosition=middle;labelBackgroundColor=none;labelBorderColor=none;whiteSpace=wrap;html=1;" vertex="1" parent="WIyWlLk6GJQsqaUBKTNV-1">
          <mxGeometry x="-2420" y="689" width="40" height="20" as="geometry" />
        </mxCell>
        <mxCell id="wJtr19coKHJFjeqQPlpN-132" style="edgeStyle=orthogonalEdgeStyle;rounded=0;orthogonalLoop=1;jettySize=auto;html=1;exitX=0.5;exitY=1;exitDx=0;exitDy=0;fontSize=25;entryX=0.5;entryY=1;entryDx=0;entryDy=0;" edge="1" parent="WIyWlLk6GJQsqaUBKTNV-1" source="wJtr19coKHJFjeqQPlpN-51" target="wJtr19coKHJFjeqQPlpN-39">
          <mxGeometry relative="1" as="geometry">
            <mxPoint x="-2130" y="760" as="targetPoint" />
            <Array as="points">
              <mxPoint x="-2239" y="850" />
              <mxPoint x="-2130" y="850" />
              <mxPoint x="-2130" y="759" />
              <mxPoint x="-2240" y="759" />
            </Array>
          </mxGeometry>
        </mxCell>
        <mxCell id="wJtr19coKHJFjeqQPlpN-51" value="" style="rounded=0;whiteSpace=wrap;html=1;" vertex="1" parent="WIyWlLk6GJQsqaUBKTNV-1">
          <mxGeometry x="-2319" y="798" width="160" height="40" as="geometry" />
        </mxCell>
        <mxCell id="wJtr19coKHJFjeqQPlpN-54" value="ID_No." style="text;strokeColor=none;fillColor=none;align=center;verticalAlign=middle;rounded=0;fontSize=25;fontStyle=0;labelPosition=center;verticalLabelPosition=middle;labelBackgroundColor=none;labelBorderColor=none;whiteSpace=wrap;html=1;" vertex="1" parent="WIyWlLk6GJQsqaUBKTNV-1">
          <mxGeometry x="-2259" y="808" width="40" height="20" as="geometry" />
        </mxCell>
        <mxCell id="wJtr19coKHJFjeqQPlpN-58" value="WORKS ON" style="text;html=1;strokeColor=none;fillColor=none;align=left;verticalAlign=middle;whiteSpace=wrap;rounded=0;labelBackgroundColor=none;fontSize=25;fontStyle=5" vertex="1" parent="WIyWlLk6GJQsqaUBKTNV-1">
          <mxGeometry x="-2479" y="768" width="180" height="20" as="geometry" />
        </mxCell>
        <mxCell id="wJtr19coKHJFjeqQPlpN-131" style="edgeStyle=orthogonalEdgeStyle;rounded=0;orthogonalLoop=1;jettySize=auto;html=1;exitX=0.5;exitY=1;exitDx=0;exitDy=0;fontSize=25;" edge="1" parent="WIyWlLk6GJQsqaUBKTNV-1" source="wJtr19coKHJFjeqQPlpN-59">
          <mxGeometry relative="1" as="geometry">
            <mxPoint x="-2360" y="480" as="targetPoint" />
            <Array as="points">
              <mxPoint x="-2399" y="860" />
              <mxPoint x="-1640" y="860" />
              <mxPoint x="-1640" y="520" />
              <mxPoint x="-2360" y="520" />
            </Array>
          </mxGeometry>
        </mxCell>
        <mxCell id="wJtr19coKHJFjeqQPlpN-59" value="" style="rounded=0;whiteSpace=wrap;html=1;" vertex="1" parent="WIyWlLk6GJQsqaUBKTNV-1">
          <mxGeometry x="-2479" y="798" width="160" height="40" as="geometry" />
        </mxCell>
        <mxCell id="wJtr19coKHJFjeqQPlpN-60" value="Model" style="text;strokeColor=none;fillColor=none;align=center;verticalAlign=middle;rounded=0;fontSize=25;fontStyle=0;labelPosition=center;verticalLabelPosition=middle;labelBackgroundColor=none;labelBorderColor=none;whiteSpace=wrap;html=1;" vertex="1" parent="WIyWlLk6GJQsqaUBKTNV-1">
          <mxGeometry x="-2419" y="808" width="40" height="20" as="geometry" />
        </mxCell>
        <mxCell id="wJtr19coKHJFjeqQPlpN-135" style="edgeStyle=orthogonalEdgeStyle;rounded=0;orthogonalLoop=1;jettySize=auto;html=1;exitX=0.5;exitY=1;exitDx=0;exitDy=0;fontSize=25;" edge="1" parent="WIyWlLk6GJQsqaUBKTNV-1" source="wJtr19coKHJFjeqQPlpN-62">
          <mxGeometry relative="1" as="geometry">
            <mxPoint x="-2330" y="480" as="targetPoint" />
            <Array as="points">
              <mxPoint x="-2238" y="990" />
              <mxPoint x="-1620" y="990" />
              <mxPoint x="-1620" y="500" />
              <mxPoint x="-2330" y="500" />
            </Array>
          </mxGeometry>
        </mxCell>
        <mxCell id="wJtr19coKHJFjeqQPlpN-62" value="" style="rounded=0;whiteSpace=wrap;html=1;" vertex="1" parent="WIyWlLk6GJQsqaUBKTNV-1">
          <mxGeometry x="-2318" y="918" width="160" height="40" as="geometry" />
        </mxCell>
        <mxCell id="wJtr19coKHJFjeqQPlpN-65" value="Model" style="text;strokeColor=none;fillColor=none;align=center;verticalAlign=middle;rounded=0;fontSize=25;fontStyle=0;labelPosition=center;verticalLabelPosition=middle;labelBackgroundColor=none;labelBorderColor=none;whiteSpace=wrap;html=1;" vertex="1" parent="WIyWlLk6GJQsqaUBKTNV-1">
          <mxGeometry x="-2258" y="928" width="40" height="20" as="geometry" />
        </mxCell>
        <mxCell id="wJtr19coKHJFjeqQPlpN-69" value="AIRPLANE" style="text;html=1;strokeColor=none;fillColor=none;align=left;verticalAlign=middle;whiteSpace=wrap;rounded=0;labelBackgroundColor=none;fontSize=25;fontStyle=5" vertex="1" parent="WIyWlLk6GJQsqaUBKTNV-1">
          <mxGeometry x="-2478" y="888" width="180" height="20" as="geometry" />
        </mxCell>
        <mxCell id="wJtr19coKHJFjeqQPlpN-70" value="" style="rounded=0;whiteSpace=wrap;html=1;" vertex="1" parent="WIyWlLk6GJQsqaUBKTNV-1">
          <mxGeometry x="-2478" y="918" width="160" height="40" as="geometry" />
        </mxCell>
        <mxCell id="wJtr19coKHJFjeqQPlpN-71" value="Reg_No." style="text;strokeColor=none;fillColor=none;align=center;verticalAlign=middle;rounded=0;fontSize=25;fontStyle=4;labelPosition=center;verticalLabelPosition=middle;labelBackgroundColor=none;labelBorderColor=none;whiteSpace=wrap;html=1;" vertex="1" parent="WIyWlLk6GJQsqaUBKTNV-1">
          <mxGeometry x="-2418" y="928" width="40" height="20" as="geometry" />
        </mxCell>
        <mxCell id="wJtr19coKHJFjeqQPlpN-72" value="" style="rounded=0;whiteSpace=wrap;html=1;" vertex="1" parent="WIyWlLk6GJQsqaUBKTNV-1">
          <mxGeometry x="-1960" y="440" width="160" height="40" as="geometry" />
        </mxCell>
        <mxCell id="wJtr19coKHJFjeqQPlpN-73" value="Reg_No." style="text;html=1;strokeColor=none;fillColor=none;align=center;verticalAlign=middle;whiteSpace=wrap;rounded=0;fontSize=25;" vertex="1" parent="WIyWlLk6GJQsqaUBKTNV-1">
          <mxGeometry x="-1901" y="450" width="40" height="20" as="geometry" />
        </mxCell>
        <mxCell id="wJtr19coKHJFjeqQPlpN-78" value="" style="rounded=0;whiteSpace=wrap;html=1;" vertex="1" parent="WIyWlLk6GJQsqaUBKTNV-1">
          <mxGeometry x="-2158" y="1040" width="180" height="40" as="geometry" />
        </mxCell>
        <mxCell id="wJtr19coKHJFjeqQPlpN-79" value="" style="rounded=0;whiteSpace=wrap;html=1;" vertex="1" parent="WIyWlLk6GJQsqaUBKTNV-1">
          <mxGeometry x="-2318" y="1040" width="160" height="40" as="geometry" />
        </mxCell>
        <mxCell id="wJtr19coKHJFjeqQPlpN-139" style="edgeStyle=orthogonalEdgeStyle;rounded=0;orthogonalLoop=1;jettySize=auto;html=1;exitX=0.5;exitY=1;exitDx=0;exitDy=0;fontSize=25;startArrow=none;startFill=0;endArrow=classic;endFill=1;" edge="1" parent="WIyWlLk6GJQsqaUBKTNV-1" source="wJtr19coKHJFjeqQPlpN-80" target="wJtr19coKHJFjeqQPlpN-4">
          <mxGeometry relative="1" as="geometry">
            <mxPoint x="-2264" y="361" as="targetPoint" />
            <Array as="points">
              <mxPoint x="-1898" y="1100" />
              <mxPoint x="-2530" y="1100" />
              <mxPoint x="-2530" y="390" />
              <mxPoint x="-2264" y="390" />
            </Array>
          </mxGeometry>
        </mxCell>
        <mxCell id="wJtr19coKHJFjeqQPlpN-80" value="" style="rounded=0;whiteSpace=wrap;html=1;" vertex="1" parent="WIyWlLk6GJQsqaUBKTNV-1">
          <mxGeometry x="-1978" y="1040" width="160" height="40" as="geometry" />
        </mxCell>
        <mxCell id="wJtr19coKHJFjeqQPlpN-134" style="edgeStyle=orthogonalEdgeStyle;rounded=0;orthogonalLoop=1;jettySize=auto;html=1;exitX=0.5;exitY=1;exitDx=0;exitDy=0;fontSize=25;entryX=0.738;entryY=0.988;entryDx=0;entryDy=0;entryPerimeter=0;" edge="1" parent="WIyWlLk6GJQsqaUBKTNV-1" source="wJtr19coKHJFjeqQPlpN-81" target="wJtr19coKHJFjeqQPlpN-70">
          <mxGeometry relative="1" as="geometry">
            <mxPoint x="-2360" y="960" as="targetPoint" />
            <Array as="points">
              <mxPoint x="-1738" y="1100" />
              <mxPoint x="-1630" y="1100" />
              <mxPoint x="-1630" y="1020" />
              <mxPoint x="-2360" y="1020" />
            </Array>
          </mxGeometry>
        </mxCell>
        <mxCell id="wJtr19coKHJFjeqQPlpN-81" value="" style="rounded=0;whiteSpace=wrap;html=1;" vertex="1" parent="WIyWlLk6GJQsqaUBKTNV-1">
          <mxGeometry x="-1818" y="1040" width="160" height="40" as="geometry" />
        </mxCell>
        <mxCell id="wJtr19coKHJFjeqQPlpN-82" value="Work Code" style="text;strokeColor=none;fillColor=none;align=center;verticalAlign=middle;rounded=0;fontSize=25;fontStyle=0;labelPosition=center;verticalLabelPosition=middle;labelBackgroundColor=none;labelBorderColor=none;whiteSpace=wrap;html=1;" vertex="1" parent="WIyWlLk6GJQsqaUBKTNV-1">
          <mxGeometry x="-2310" y="1050" width="142" height="20" as="geometry" />
        </mxCell>
        <mxCell id="wJtr19coKHJFjeqQPlpN-83" value="Hours" style="text;html=1;strokeColor=none;fillColor=none;align=center;verticalAlign=middle;whiteSpace=wrap;rounded=0;fontSize=25;" vertex="1" parent="WIyWlLk6GJQsqaUBKTNV-1">
          <mxGeometry x="-2157.5" y="1050" width="179" height="20" as="geometry" />
        </mxCell>
        <mxCell id="wJtr19coKHJFjeqQPlpN-84" value="ID_No." style="text;html=1;strokeColor=none;fillColor=none;align=center;verticalAlign=middle;whiteSpace=wrap;rounded=0;fontSize=25;" vertex="1" parent="WIyWlLk6GJQsqaUBKTNV-1">
          <mxGeometry x="-1918" y="1050" width="40" height="20" as="geometry" />
        </mxCell>
        <mxCell id="wJtr19coKHJFjeqQPlpN-85" value="Reg_No." style="text;html=1;strokeColor=none;fillColor=none;align=center;verticalAlign=middle;whiteSpace=wrap;rounded=0;fontSize=25;" vertex="1" parent="WIyWlLk6GJQsqaUBKTNV-1">
          <mxGeometry x="-1758" y="1050" width="40" height="20" as="geometry" />
        </mxCell>
        <mxCell id="wJtr19coKHJFjeqQPlpN-86" value="SERVICE" style="text;html=1;strokeColor=none;fillColor=none;align=left;verticalAlign=middle;whiteSpace=wrap;rounded=0;labelBackgroundColor=none;fontSize=25;fontStyle=5" vertex="1" parent="WIyWlLk6GJQsqaUBKTNV-1">
          <mxGeometry x="-2478" y="1010" width="180" height="20" as="geometry" />
        </mxCell>
        <mxCell id="wJtr19coKHJFjeqQPlpN-87" value="" style="rounded=0;whiteSpace=wrap;html=1;" vertex="1" parent="WIyWlLk6GJQsqaUBKTNV-1">
          <mxGeometry x="-2478" y="1040" width="160" height="40" as="geometry" />
        </mxCell>
        <mxCell id="wJtr19coKHJFjeqQPlpN-88" value="Date" style="text;strokeColor=none;fillColor=none;align=center;verticalAlign=middle;rounded=0;fontSize=25;fontStyle=0;labelPosition=center;verticalLabelPosition=middle;labelBackgroundColor=none;labelBorderColor=none;whiteSpace=wrap;html=1;" vertex="1" parent="WIyWlLk6GJQsqaUBKTNV-1">
          <mxGeometry x="-2418" y="1050" width="40" height="20" as="geometry" />
        </mxCell>
        <mxCell id="wJtr19coKHJFjeqQPlpN-97" value="MAINTAIN" style="text;html=1;strokeColor=none;fillColor=none;align=left;verticalAlign=middle;whiteSpace=wrap;rounded=0;labelBackgroundColor=none;fontSize=25;fontStyle=5" vertex="1" parent="WIyWlLk6GJQsqaUBKTNV-1">
          <mxGeometry x="-2480" y="1130" width="180" height="20" as="geometry" />
        </mxCell>
        <mxCell id="wJtr19coKHJFjeqQPlpN-137" style="edgeStyle=orthogonalEdgeStyle;rounded=0;orthogonalLoop=1;jettySize=auto;html=1;exitX=0.5;exitY=1;exitDx=0;exitDy=0;fontSize=25;entryX=0.121;entryY=0.974;entryDx=0;entryDy=0;entryPerimeter=0;" edge="1" parent="WIyWlLk6GJQsqaUBKTNV-1" source="wJtr19coKHJFjeqQPlpN-98" target="wJtr19coKHJFjeqQPlpN-4">
          <mxGeometry relative="1" as="geometry">
            <mxPoint x="-2310" y="370" as="targetPoint" />
            <Array as="points">
              <mxPoint x="-2400" y="1220" />
              <mxPoint x="-2550" y="1220" />
              <mxPoint x="-2550" y="380" />
              <mxPoint x="-2301" y="380" />
            </Array>
          </mxGeometry>
        </mxCell>
        <mxCell id="wJtr19coKHJFjeqQPlpN-98" value="" style="rounded=0;whiteSpace=wrap;html=1;" vertex="1" parent="WIyWlLk6GJQsqaUBKTNV-1">
          <mxGeometry x="-2480" y="1160" width="160" height="40" as="geometry" />
        </mxCell>
        <mxCell id="wJtr19coKHJFjeqQPlpN-99" value="ID_No." style="text;strokeColor=none;fillColor=none;align=center;verticalAlign=middle;rounded=0;fontSize=25;fontStyle=0;labelPosition=center;verticalLabelPosition=middle;labelBackgroundColor=none;labelBorderColor=none;whiteSpace=wrap;html=1;" vertex="1" parent="WIyWlLk6GJQsqaUBKTNV-1">
          <mxGeometry x="-2420" y="1170" width="40" height="20" as="geometry" />
        </mxCell>
        <mxCell id="wJtr19coKHJFjeqQPlpN-100" value="" style="rounded=0;whiteSpace=wrap;html=1;" vertex="1" parent="WIyWlLk6GJQsqaUBKTNV-1">
          <mxGeometry x="-2160" y="1280" width="180" height="40" as="geometry" />
        </mxCell>
        <mxCell id="wJtr19coKHJFjeqQPlpN-101" value="" style="rounded=0;whiteSpace=wrap;html=1;" vertex="1" parent="WIyWlLk6GJQsqaUBKTNV-1">
          <mxGeometry x="-2320" y="1280" width="160" height="40" as="geometry" />
        </mxCell>
        <mxCell id="wJtr19coKHJFjeqQPlpN-133" style="edgeStyle=orthogonalEdgeStyle;rounded=0;orthogonalLoop=1;jettySize=auto;html=1;exitX=0.5;exitY=1;exitDx=0;exitDy=0;fontSize=25;" edge="1" parent="WIyWlLk6GJQsqaUBKTNV-1" source="wJtr19coKHJFjeqQPlpN-102" target="wJtr19coKHJFjeqQPlpN-70">
          <mxGeometry relative="1" as="geometry">
            <mxPoint x="-2330" y="970" as="targetPoint" />
            <Array as="points">
              <mxPoint x="-1900" y="1340" />
              <mxPoint x="-1610" y="1340" />
              <mxPoint x="-1610" y="1010" />
              <mxPoint x="-2330" y="1010" />
            </Array>
          </mxGeometry>
        </mxCell>
        <mxCell id="wJtr19coKHJFjeqQPlpN-102" value="" style="rounded=0;whiteSpace=wrap;html=1;" vertex="1" parent="WIyWlLk6GJQsqaUBKTNV-1">
          <mxGeometry x="-1980" y="1280" width="160" height="40" as="geometry" />
        </mxCell>
        <mxCell id="wJtr19coKHJFjeqQPlpN-104" value="Capacity" style="text;strokeColor=none;fillColor=none;align=center;verticalAlign=middle;rounded=0;fontSize=25;fontStyle=0;labelPosition=center;verticalLabelPosition=middle;labelBackgroundColor=none;labelBorderColor=none;whiteSpace=wrap;html=1;" vertex="1" parent="WIyWlLk6GJQsqaUBKTNV-1">
          <mxGeometry x="-2260" y="1290" width="40" height="20" as="geometry" />
        </mxCell>
        <mxCell id="wJtr19coKHJFjeqQPlpN-105" value="Location" style="text;html=1;strokeColor=none;fillColor=none;align=center;verticalAlign=middle;whiteSpace=wrap;rounded=0;fontSize=25;" vertex="1" parent="WIyWlLk6GJQsqaUBKTNV-1">
          <mxGeometry x="-2142.75" y="1290" width="149.5" height="20" as="geometry" />
        </mxCell>
        <mxCell id="wJtr19coKHJFjeqQPlpN-106" value="Reg_No." style="text;html=1;strokeColor=none;fillColor=none;align=center;verticalAlign=middle;whiteSpace=wrap;rounded=0;fontSize=25;" vertex="1" parent="WIyWlLk6GJQsqaUBKTNV-1">
          <mxGeometry x="-1920" y="1290" width="40" height="20" as="geometry" />
        </mxCell>
        <mxCell id="wJtr19coKHJFjeqQPlpN-108" value="HANGAR" style="text;html=1;strokeColor=none;fillColor=none;align=left;verticalAlign=middle;whiteSpace=wrap;rounded=0;labelBackgroundColor=none;fontSize=25;fontStyle=5" vertex="1" parent="WIyWlLk6GJQsqaUBKTNV-1">
          <mxGeometry x="-2480" y="1250" width="180" height="20" as="geometry" />
        </mxCell>
        <mxCell id="wJtr19coKHJFjeqQPlpN-109" value="" style="rounded=0;whiteSpace=wrap;html=1;" vertex="1" parent="WIyWlLk6GJQsqaUBKTNV-1">
          <mxGeometry x="-2480" y="1280" width="160" height="40" as="geometry" />
        </mxCell>
        <mxCell id="wJtr19coKHJFjeqQPlpN-110" value="Number" style="text;strokeColor=none;fillColor=none;align=center;verticalAlign=middle;rounded=0;fontSize=25;fontStyle=4;labelPosition=center;verticalLabelPosition=middle;labelBackgroundColor=none;labelBorderColor=none;whiteSpace=wrap;html=1;" vertex="1" parent="WIyWlLk6GJQsqaUBKTNV-1">
          <mxGeometry x="-2420" y="1290" width="40" height="20" as="geometry" />
        </mxCell>
        <mxCell id="wJtr19coKHJFjeqQPlpN-140" style="edgeStyle=orthogonalEdgeStyle;rounded=0;orthogonalLoop=1;jettySize=auto;html=1;exitX=0.5;exitY=1;exitDx=0;exitDy=0;startArrow=none;startFill=0;endArrow=classic;endFill=1;fontSize=25;jumpStyle=sharp;jumpSize=30;entryX=0.5;entryY=1;entryDx=0;entryDy=0;" edge="1" parent="WIyWlLk6GJQsqaUBKTNV-1" source="wJtr19coKHJFjeqQPlpN-122" target="wJtr19coKHJFjeqQPlpN-109">
          <mxGeometry relative="1" as="geometry">
            <mxPoint x="-1530" y="1000" as="targetPoint" />
            <Array as="points">
              <mxPoint x="-2077" y="970" />
              <mxPoint x="-1580" y="970" />
              <mxPoint x="-1580" y="1360" />
              <mxPoint x="-2400" y="1360" />
            </Array>
          </mxGeometry>
        </mxCell>
        <mxCell id="wJtr19coKHJFjeqQPlpN-122" value="" style="rounded=0;whiteSpace=wrap;html=1;" vertex="1" parent="WIyWlLk6GJQsqaUBKTNV-1">
          <mxGeometry x="-2157.5" y="918" width="160" height="40" as="geometry" />
        </mxCell>
        <mxCell id="wJtr19coKHJFjeqQPlpN-123" value="Number" style="text;strokeColor=none;fillColor=none;align=center;verticalAlign=middle;rounded=0;fontSize=25;fontStyle=0;labelPosition=center;verticalLabelPosition=middle;labelBackgroundColor=none;labelBorderColor=none;whiteSpace=wrap;html=1;" vertex="1" parent="WIyWlLk6GJQsqaUBKTNV-1">
          <mxGeometry x="-2097.5" y="928" width="40" height="20" as="geometry" />
        </mxCell>
      </root>
    </mxGraphModel>
  </diagram>
</mxfile>
